<svg width="32" height="32" viewBox="0 0 32 32" fill="none" xmlns="http://www.w3.org/2000/svg">
<path d="M26.6663 25.3332V21.3332H9.33301C7.12387 21.3332 5.33301 23.124 5.33301 25.3332M11.733 29.3332H22.3997C23.8931 29.3332 24.6399 29.3332 25.2103 29.0425C25.7121 28.7869 26.12 28.3789 26.3757 27.8771C26.6663 27.3067 26.6663 26.56 26.6663 25.0665V6.93317C26.6663 5.4397 26.6663 4.69296 26.3757 4.12253C26.12 3.62076 25.7121 3.21282 25.2103 2.95715C24.6399 2.6665 23.8931 2.6665 22.3997 2.6665H11.733C9.4928 2.6665 8.37269 2.6665 7.51705 3.10248C6.7644 3.48597 6.15248 4.09789 5.76898 4.85054C5.33301 5.70619 5.33301 6.82629 5.33301 9.0665V22.9332C5.33301 25.1734 5.33301 26.2935 5.76898 27.1491C6.15248 27.9018 6.7644 28.5137 7.51705 28.8972C8.37269 29.3332 9.4928 29.3332 11.733 29.3332Z" stroke="#6A55FE" stroke-width="2" stroke-linecap="round" stroke-linejoin="round"/>
</svg>
