<svg width="32" height="32" viewBox="0 0 32 32" fill="none" xmlns="http://www.w3.org/2000/svg">
<path d="M10.667 28V9.33333C10.667 8.09337 10.667 7.47339 10.8033 6.96472C11.1732 5.58436 12.2513 4.50617 13.6317 4.1363C14.1404 4 14.7604 4 16.0003 4C17.2403 4 17.8603 4 18.3689 4.1363C19.7493 4.50617 20.8275 5.58436 21.1974 6.96472C21.3337 7.47339 21.3337 8.09337 21.3337 9.33333V28M6.93366 28H25.067C26.5605 28 27.3072 28 27.8776 27.7094C28.3794 27.4537 28.7873 27.0457 29.043 26.544C29.3337 25.9735 29.3337 25.2268 29.3337 23.7333V13.6C29.3337 12.1065 29.3337 11.3598 29.043 10.7894C28.7873 10.2876 28.3794 9.87965 27.8776 9.62398C27.3072 9.33333 26.5605 9.33333 25.067 9.33333H6.93366C5.44019 9.33333 4.69345 9.33333 4.12302 9.62398C3.62125 9.87965 3.2133 10.2876 2.95764 10.7894C2.66699 11.3598 2.66699 12.1065 2.66699 13.6V23.7333C2.66699 25.2268 2.66699 25.9735 2.95764 26.544C3.2133 27.0457 3.62125 27.4537 4.12302 27.7094C4.69345 28 5.44019 28 6.93366 28Z" stroke="#6A55FE" stroke-width="2" stroke-linecap="round" stroke-linejoin="round"/>
</svg>
