<svg width="32" height="32" viewBox="0 0 32 32" fill="none" xmlns="http://www.w3.org/2000/svg">
<path d="M22.667 19.3331V15.3257C22.667 15.0864 22.667 14.9667 22.6306 14.8611C22.5983 14.7677 22.5457 14.6826 22.4766 14.612C22.3984 14.5321 22.2914 14.4786 22.0774 14.3716L16.0003 11.3331M5.33366 12.6664V21.7419C5.33366 22.2378 5.33366 22.4857 5.41102 22.7028C5.4794 22.8947 5.59086 23.0684 5.73683 23.2106C5.90195 23.3713 6.12736 23.4746 6.57813 23.6813L15.1115 27.5924C15.4384 27.7422 15.6019 27.8172 15.7722 27.8467C15.9232 27.8729 16.0775 27.8729 16.2284 27.8467C16.3987 27.8172 16.5622 27.7422 16.8892 27.5924L25.4225 23.6813C25.8733 23.4746 26.0987 23.3713 26.2638 23.2106C26.4098 23.0684 26.5212 22.8947 26.5896 22.7028C26.667 22.4857 26.667 22.2378 26.667 21.7419V12.6664M2.66699 11.3331L15.5233 4.90494C15.6982 4.81749 15.7857 4.77376 15.8774 4.75655C15.9586 4.74131 16.042 4.74131 16.1233 4.75655C16.215 4.77376 16.3024 4.81749 16.4774 4.90494L29.3337 11.3331L16.4774 17.7612C16.3024 17.8487 16.215 17.8924 16.1233 17.9096C16.042 17.9249 15.9586 17.9249 15.8774 17.9096C15.7857 17.8924 15.6982 17.8487 15.5233 17.7612L2.66699 11.3331Z" stroke="#6A55FE" stroke-width="2" stroke-linecap="round" stroke-linejoin="round"/>
</svg>
