<svg width="32" height="32" viewBox="0 0 32 32" fill="none" xmlns="http://www.w3.org/2000/svg">
<path d="M17.3331 18.6665L13.3331 14.6665M20.0136 4.6665V2.6665M25.2661 6.74738L26.6803 5.33317M25.2661 17.3332L26.6803 18.7474M14.6803 6.74738L13.2661 5.33317M27.3469 11.9998H29.3469M8.17496 27.8247L20.4913 15.5083C21.0193 14.9803 21.2833 14.7163 21.3823 14.4119C21.4693 14.1441 21.4693 13.8556 21.3823 13.5878C21.2833 13.2834 21.0193 13.0194 20.4913 12.4913L19.5083 11.5083C18.9803 10.9803 18.7163 10.7163 18.4118 10.6174C18.144 10.5304 17.8556 10.5304 17.5878 10.6174C17.2833 10.7163 17.0193 10.9803 16.4913 11.5083L4.17496 23.8247C3.64694 24.3527 3.38293 24.6167 3.28401 24.9211C3.197 25.1889 3.197 25.4774 3.28401 25.7452C3.38293 26.0496 3.64694 26.3136 4.17496 26.8417L5.15797 27.8247C5.68599 28.3527 5.95 28.6167 6.25444 28.7156C6.52223 28.8026 6.8107 28.8026 7.07849 28.7156C7.38293 28.6167 7.64694 28.3527 8.17496 27.8247Z" stroke="#6A55FE" stroke-width="2" stroke-linecap="round" stroke-linejoin="round"/>
</svg>
